<svg xmlns="http://www.w3.org/2000/svg" xml:space="preserve" fill-rule="evenodd" stroke-linejoin="round"
  stroke-miterlimit="2" clip-rule="evenodd" viewBox="0 0 1024 1024">
  <path fill="var(--illustration-leaves-color)"
    d="M229.069 487.237s-32.454-49.796 11.526-84.953c0 0-15.621-75.193 65.059-82.018 0 0 4.55-69.912 76.585-65.666 0 0 13.346-20.018 42.918-15.923 0 0 24.671-53.115 93.475-23.187 0 0 25.301-34.556 67.879 0 0 0 57.303-17.83 79.518 44.865 0 0 43.442 5.443 41.468 44.69 0 0-153.777 19.119-206.846 34.176-53.068 15.057-258.814 137.319-271.582 148.016Z" />
  <path fill="url(#a)"
    d="M838.754 492.38a335.61 335.61 0 0 1 3.126 45.786c0 183.953-149.347 333.299-333.299 333.299-183.953 0-333.299-149.346-333.299-333.299 0-1.416.008-2.831.026-4.265l663.446-41.521Z" />
  <path fill="var(--illustration-trunk-color)"
    d="m459.832 687.299 16.02-1.103c30.866-2.123 95.526-6.569 95.189-6.513-.526.157-.212 36.07-.064 50.563.037 3.666 87.515 58.245 87.562 58.254 164.096 33.496-205.446 139.205-351.021 12.241-1.597-1.393 127.438-61.296 127.438-61.296l24.876-52.146Zm-61.695 94.136a16.696 16.696 0 0 0-.889-.957c.287.286.576.6.859.944l.03.013Zm162.986-121.356c-15.7-26.375.082-88.771 20.201-118.323l129.594-31.413L841.88 437.33l-9.89-23.195-195.781-43.629-137.025 3.81-141.198 70.616-55.411 37.181s138.813 71.504 157.601 101.653c17.511 28.099 15.676 81.996 15.676 81.996l85.271-5.683Z" />
  <path fill="var(--illustration-leaves-outline)"
    d="m256.933 408.794.067.364c-24.018 8.577-30.15 44.906-31.341 54.293-3.134-17.663-.393-45.339 26.584-52.877 3.162-.884 4.484-1.19 4.69-1.78Zm-.158-.862-.879-1.418c-4.447-6.9-6.007-25.802-3.068-37.193 3.682-14.271 14.1-28.059 25.926-34.31 5.605-2.963 18.211-6.945 19.117-6.039.224.224 1.005 2.712 1.736 5.53l.709 2.064c-51.775 13.779-45.098 62.981-43.541 71.366Zm135.528-147.203c2.788-4.87 7.323-8.741 11.736-10.659 16.224-7.053 25.486-2.441 30.033-.001 2.233 1.198 6.881 2.924 10 4.571 3.119 1.648 7.686 3.697 10.148 4.553 2.243.779 15.692 7.175 19.566 9.238-6.836-2.754-23.128-7.474-28.762-9.238-24.767-7.756-37.827-7.773-52.473 3.285-1.348 1.018-2.399 4.465-2.399 4.465-.718-.688-3.103-1.282-4.374-1.416-47.384-.825-67.622 56.472-68.531 69.908-1.492-5.32-2.004-9.966-2.004-15.787 0-10.013 1.707-16.63 6.813-26.399 7.25-13.87 20.048-24.593 34.866-29.214 7.297-2.275 9.605-2.557 17.127-2.093 4.782.294 10.309 1.231 12.284 2.082l.041.018 3.481 1.274s1.725-3.982 2.448-4.587Zm143.659-40.319c.981-5.287 44.358 1.061 49.049 9.952 2.53 4.795 38.628-10.173 67.599 22.206l1.085 1.381-1.443-3.196c-6.105-14.368-21.053-22.989-36.113-26.538-8.694-2.05-15.071-1.916-23.782.498l-7.346 2.035-5.179-4.898c-8.12-7.68-19.73-12.139-31.658-12.161-6.422-.012-16.204 2.19-18.669 4.202-.587.48 2.667 3.623 6.457 6.519Zm-91.89 17.194c12.358-8.275 46.908-24.317 91.342-4.984l-.41-.258c-6.085-4.369-41.131-16.211-46.23-17.34-21.162-4.683-43.672 6.189-54.702 17.34l10 5.242Z" />
  <path fill="#fff" fill-opacity=".08"
    d="m176.798 545.291 13.802 14.416c.166 11.018 3.141 28.209 4.06 35.47 7.91 62.483 31.233 116.895 69.441 162 10.442 12.328 29.703 31.603 37.321 37.349l5.679 4.284 9.451-4.566c5.198-2.512 9.843-4.562 10.321-4.556.478.01 7.17-3.134 14.87-6.978 11.972-5.978 15.127-7.125 21.784-7.919a76.121 76.121 0 0 0 3.495-.481l-37.08 21.068v23.611s74.999 50.786 147.221 52.476c72.221 1.691 183.887-26.92 228.331-57.476L694.81 790.58l19.711 8.11 4.595-3.757c8.067-6.595 30.194-29.433 38.036-39.256 26.821-33.601 45.785-70.324 55.101-106.702 1.636-6.389 3.135-11.777 3.333-11.974.404-.405 17.664-10.096 18.29-10.096 1.36 0-4.611 32.607-10.015 48.362-10.559 30.783-30.127 66.93-52.932 94.41-9.986 12.033-31.5 33.271-42.686 42.139-50.401 39.958-107.926 64.65-174.5 74.902-18.231 2.808-60.528 3.563-79.5 1.42v.001c-39.529-4.465-83.866-17.343-117.149-34.028-76.243-38.219-131.856-98.259-162.263-175.179-16.422-41.541-20.916-91.872-18.033-133.641Zm295.07 146.43-8.825 1.162c-2.998 9.469-6.605 20.385-10.88 33.052l-73.913 41.996c1.83-1.829 3.66-3.957 4.702-5.528 4.706-7.094 15.812-17.589 20.995-19.841 2.637-1.146 8.795-3.414 13.682-5.039 9.314-3.097 19.911-8.01 22.837-10.589.947-.835 3.331-5.622 5.297-10.637 1.967-5.016 5.923-12.495 8.793-16.62l5.218-7.5 12.094-.456Zm379.726-268.6c5.43 4.662 8.649 10.31 8.649 15.676 0 4.314-4.287 11.322-9.608 15.708-8.99 7.411-28.249 15.303-50.392 20.651-6.325 1.527-11.984 3.282-12.576 3.899-.592.617-2.34 4.185-3.886 7.928-10.806 26.166-32.554 42.791-64.397 49.23-11.714 2.368-32.102 1.679-40.895-1.382l-6.253-2.177-3.751 2.482c-9.681 6.407-28.102 11.247-38.648 10.155-3.352-.347-9.019-1.527-12.594-2.621l-6.5-1.99-2.5 2.898c-13.906 16.119-22.226 4.804-38.874 29.288-11.507 16.922-12.727 81.731-12.727 81.731s34.132-1.214 48.601-3.455c82.49-12.775 115.826-16.369 159.917-30.074 43.051-13.381 68.122-23.039 80.333-36.189 4.185-4.508 4.75-5.644 4.75-9.555 0-3.801-.492-4.871-3.419-7.44-10.109-8.877-29.917-14.896-69.416-13.87-37.657.978-59.692 2.106-118.165 12.663-45.243 8.169-81.72 17.006-84.87 16.973-5.675-.058 23.024-10.625 47.106-17.345 40.781-11.38 78.111-18.988 113.764-23.186 18.728-2.205 65.515-3.053 81.537-1.477 41.631 4.093 62.32 19.447 54.439 40.4-4.224 11.23-17.185 21.621-41.323 33.128-41.99 20.018-105.764 34.153-190.653 47.959-26.745 4.349-48.974 6.764-92.5 10.046-18.7 1.411-40.975 3.212-49.5 4.003-26.32 2.441-43.823 4.477-87.5 4.995-38.792.46-27.757.644-50-1.398v-.001c-39.071-3.084-50.095-32.048-13.015-40.55 5.129-1.176 10.689-1.666 10.366-2.138-.563-.822-23.444 13.891-18.855 19.667 5.107 6.427 23.945 13.117 67.504 10.951 23.392-1.163 60.848-5.127 62.137-5.331 4.306-.68 1.223-62.921-4.837-61.782-6.408 1.203-33.497 5.655-48.8 7.572-16.849 2.111-47.704 2.093-59.019-.035-11.084-2.084-20.224-5.655-21.565-9.613-4.005-11.816 4.419-11.79 25.692-19.279 13.649-4.806 36.651-12.787 35.309-11.748-4.447 3.439-50.681 25.238-39.917 26.689 19.606 2.643 74.058 7.647 99.781.577-2.805-.919-7.224-6.429-11.164-9.914-3.941-3.486-10.397-10.236-14.347-15-3.951-4.765-7.613-8.959-8.138-9.321-.525-.362-4.504-1.178-8.843-1.812-46.472-14.114-53.174 28.993-94.269-8.099-4.796-4.536-5.863-5.106-8.741-4.672-5.735.864-12.383-.472-23.279-4.616-7.347-2.795-21.917-19.428-21.642-23.134l50.563 6.75s85.467 6.448 123.673 41.948c5.898 5.479 18.279 10.048 21.437 16.995 14.879 32.741 21.469 63.422 21.338 64.096-2.89 14.919 2.713 14.079 4.082 13.233.522-.324 66.005-7.611 66.005-7.611l10.685-88.383c1.483-20.662 40.412-32.84 75.676-35.392 15.548-1.125 204.32-81.496 204.32-81.496l9.714-26.205Zm-22.953 106.102c-4.582-.238-6.609-.043-6.609-.899 0-2.658-3.711-37.106-4.234-38.47-.406-1.058.65 2.317 7.082 0 4.801-1.729 8.849-3.024 8.996-2.877.992.992 4.721 23.137 5.841 32.209.947 11.591.653 8.537.827 11.636 0 0-8.191-1.407-11.903-1.599Zm-560.019-41.986c10.724.444-44.352 11.364-67.621 10.764-11.616-.3-18.405-1.221-24.368-3.195-15.044-4.98-22.39-13.942-22.39-24.006 0-5.991 2.047-10.561 7.635-17.042 8.39-9.731 31.284-23.71 45.249-27.628 5.315-1.492 6.542-2.334 9.943-6.827 4.853-6.413 3.831 32.737 3.831 32.737l10.636 30.232 22.794-2.119 14.291 7.084Zm-56.379 1.269c2.744-1.122 1.37-4.928 0-8.353-3.63-9.072-7.445-18.579-6.171-28.113.575-4.302.918-7.949.763-8.105-.573-.572-10.272 4.156-16.235 7.915-12.347 7.781-17.709 16.553-13.802 22.582.979 1.51 2.704 3.559 3.834 4.555 2.72 2.396 15.651 8.495 20.369 9.607 5.584 1.317 11.242 1.272 11.242-.088Z" />
  <path
    fill="var(--illustration-color)"
    d="M530.862 693.677c-5.154 12.548-25.073 56.056-29.941 61.441-20.509 22.686-54.033 47.162-43.188 59.016 1.96 3.837 5.47 6.248-2.49 19.212-3.493.161-13.446 4.197-19.026 9.961-4.481 4.629-8.974 7.995-8.974 8.565 0 .585.978.396 2.25-.435 6.658-4.348 13.843-9.493 21.274-10.282 17.612-1.87 21.892-31.867 15.084-34.339-1.873-6.741 19.758-26.058 39.199-47.483 9.669-10.655 18.796-21.831 24.221-32.242 3.295-6.322 5.525-12.814 6.04-13.914 1.966-4.205 4.878-14.341 6.51-22.66l1.699-8.661 4.319-.343c4.877-.388 4.701-1.422 1.77 10.424-2.707 10.934-10.001 30.168-15.728 41.469-3.536 6.976-13.978 34.026-18.115 43.771-6.779 16.336 2.77 32.189 4.991 48.5l.638 5.5-3.622 1.932c-3.802 2.029-16.512 14.798-18.586 18.673-1.018 1.902-.435 1.696 3.673-1.298 2.686-1.957 8.331-5.886 12.546-8.732l7.662-5.174 6.338 2.931c3.485 1.612 9.149 5.232 12.587 8.045 3.437 2.813 6.25 4.86 6.25 4.549 0-1.374-6.533-9.864-11.122-14.453-4.659-4.659-5.337-5.996-9.341-18.412-8.059-21.207-9.984-33.93 8.943-73.061 4.965-10.898 15.453-43.125 17.637-54.193l2.189-11.095 3.597-.595c1.978-.327 5.237-.6 7.241-.606l3.644-.011.356 7.776c.324 7.066.685 8.23 3.958 12.75 4.467 6.17 5.898 10.29 5.898 16.984 0 3.947.63 6.154 2.599 9.101 4.098 6.131 8.412 10.292 15.069 14.534 6.792 4.329 11.951 9.56 15.488 15.704 1.784 3.101 3.099 4.164 5.772 4.665 4.887.917 11.781 4.599 17.575 9.387 2.728 2.254 5.644 4.127 6.479 4.161.835.034 5.876.01 11.204-.056 12.053-.147 13.508.252 38.62 10.584l20.472 8.423 4.595-3.757c8.067-6.595 30.194-29.433 38.036-39.256 26.821-33.601 45.785-70.324 55.101-106.702 1.636-6.389 3.135-11.777 3.333-11.974.404-.405 20.576-8.324 21.202-8.324 1.36 0-6.689 31.357-12.093 47.111-10.559 30.783-30.961 66.409-53.766 93.889-9.986 12.033-31.5 33.271-42.686 42.139-50.401 39.958-107.926 64.65-174.5 74.902-18.231 2.808-60.528 3.563-79.5 1.42v.001c-39.529-4.465-83.866-17.343-117.149-34.028-76.243-38.219-131.856-98.259-162.263-175.179-16.465-41.65-24.605-91.923-21.657-133.755 1.487-21.107 3.033-35.125 3.624-33.052.501 1.759 18.387 2.791 20.028 2.317.353-.102-2.02 11.685-2.705 17.38-1.749 14.552-1.469 47.495.539 63.355 7.91 62.483 31.233 116.895 69.441 162 10.442 12.328 29.703 31.603 37.321 37.349l5.679 4.284 9.451-4.566c5.198-2.512 9.843-4.562 10.321-4.556.478.01 7.17-3.134 14.87-6.978 11.972-5.978 15.127-7.125 21.784-7.919 6.771-.808 8.359-1.4 12.209-4.555 2.434-1.994 5.681-5.519 7.216-7.833 4.706-7.094 15.812-17.589 20.995-19.841 2.637-1.146 8.795-3.414 13.682-5.039 9.314-3.097 19.911-8.01 22.837-10.589.947-.835 3.331-5.622 5.297-10.637 1.967-5.016 5.923-12.495 8.793-16.62l5.218-7.5 15.509-.585-1.27 2.926c-16.689 38.448-18.212 40.997-28.765 48.147-8.736 5.92-13.128 7.801-24.472 10.481-13.367 3.159-10.873 3.617-18.422 10.367-5.691 5.089-14.547 15.254-21.553 20.388-3.935 2.884-6.85 6.267-14.481 6.776-6.999.467-10.141 1.269-17.077 4.36-4.675 2.084-8.95 4.258-9.5 4.831-1.027 1.071-.979 1.067 17.369-1.695 8.511-1.28 16.229-.664 11.381.909-1.895.615-3.257 2.595-1.786 2.595 2.282 0 17.32-9.882 24.199-15.901 13.1-8.382 26.989-21.729 39.742-23.099 7.033 0 26.9-12.531 32.864-20.728 5.196-7.142 6.143-9.488 10.155-25.162 2.025-7.915 4.363-16.24 5.195-18.5.832-2.261 1.761-4.897 2.064-5.86.395-1.257 1.605-1.75 4.297-1.75 4.522 0 .387 13.232.387 13.232-7.423 29.228-9.58 33.113-31.114 56.036-13.027 13.868-16.914 20.007-19.774 31.232-.981 3.85-2.503 7.582-3.382 8.294-2.925 2.368-17.731 6.241-26.219 6.858-6.039.439-8.937 1.113-10.378 2.416-1.1.994-7.077 4.051-13.282 6.793-10.976 4.851-28.537 16.2-26.248 16.963 1.348.449 20.766-5.685 33.53-10.592 6.879-2.644 11.357-3.651 19-4.274 5.5-.448 11.35-1.026 13-1.285 9.442-2.046 7.525 2.47-1.159 8.156-3.981 2.228-.07 2.293 5.373.09 6.881-2.787 14.517-10.201 15.75-14.756.657-2.428 29.116-29.065 49.418-52.663 17.502-20.343 29.85-48.341 31.429-56.281 2.681-13.479-4.007-12.813 2.034-12.047l2.588.328 4.686 9.5Zm66.268 131.74c4.157-8.971 68.725 9.056 50.808 1.898-27.843-11.123-42.812-17.297-63.695-24.201-14.671-4.85-18.06-6.617-24.631-19.698-7.795-15.52-8.975-24.075-4.973-36.063 4.392-13.154 6.604-21.363 6.546-24.284-.046-2.271-1.249-.529-5.603 8.108-8.541 16.945-11.339 24.535-11.339 30.757 0 7.422 1.956 44.265 40.303 53.394 5.118.88 9.323 5.105 10.933 18.849.646-1.1.995-6.285 1.651-8.76Zm51.113-25.726c.149-5.867 22.344-4.61 34.75-1.377 6.265 1.633 3.081-.591-7.732-4.087-11.679-3.775-15.906-4.359-24.024-2.455-17.169 4.026-43.165-17.743-51.024-25.849-6.034-6.318-10.97-11.18-10.97-10.805 0 .376 1.117 3.045 2.483 5.932 5.337 11.282 17.978 22 39.017 33.08 4.95 2.606 9.9 5.56 11 6.563 1.757 1.603 4.019 2.279 9.472 2.834 2.2.225-3.006-2.5-2.972-3.836Zm-62.195-29.514c-7.672-10.086-10.503-15.038-14.851-25.986-2.358-5.936-2.383-5.959-3.026-2.819-.883 4.319.676 13.485 3.211 18.879 6.805 9.384 14.092 24.157 27.277 24.356 2.89 1.133-11.185-12.57-12.611-14.43Zm-114.418-9.926c6.812-7.587 33.14-52.996 35.388-69.336 3.186-23.162-26.123 59.372-47.248 75.946-14.153 11.104-3.54 10.539 11.86-6.61Zm-163.951 8.034c-2.771-1.866-8.277-6.862-12.237-11.101-6.52-6.982-7.199-8.098-7.199-11.829v-4.12l6.576 6.471c10.108 9.946 16.446 17.562 17.409 20.921.481 1.678.788 3.05.682 3.05-.107 0-2.461-1.526-5.231-3.392Zm9.064-27.799c-9.245-6.83-33.686-31.358-40.665-40.809-23.634-32.007-37.644-68.534-39.537-103.086-.913-16.659.712-16.44 4.537.611 8.351 37.221 20.07 63.977 39.41 89.975 8.466 11.38 30.318 34.037 39.491 40.946l5.237 3.944-.206 6.805c-.112 3.743-.444 6.801-.736 6.796-.292-.01-3.681-2.337-7.531-5.182ZM698.9 725.54c7.697-6.488 24.604-24.396 30.466-32.27 3.305-4.44 10.297-13.633 13.536-21.407 14.282-34.277 12.586-5.211 2.325 14.735-4.95 9.622-5.763 10.891-13.913 21.703-7.562 10.034-22.812 24.947-33.007 32.514-3.1 1.8-7.648-8.328.593-15.275Zm-80.002 5.308c-.911-1.005-1.655-2.826-1.655-4.045 0-2.658 4.19-7.12 6.704-7.139.988-.01 2.875-.303 4.193-.656 2.327-.622 2.382-.504 1.875 4-.705 6.253-3.051 9.669-6.64 9.669-1.552 0-3.567-.823-4.477-1.829Zm128.82-9.033c.959-8.241 1.352-9.278 6.152-16.221 9.963-14.411 22.772-37.965 27.961-51.417 1.272-3.3 2.336-5.668 2.363-5.262-5.666 30.847-13.464 54.561-34.81 79.127l-2.691 2.577 1.025-8.804Zm-494.697-12.923c-15.095-20.323-30.366-56.311-36.2-85.313-4.565-22.698-5.593-44.863-2.869-61.902l.879-5.5.672 5c.369 2.75.938 8.375 1.263 12.5 3.493 44.347 16.923 86.866 37.27 118 3.055 4.675 5.466 9.4 5.357 10.5-.108 1.1-.536 4.475-.95 7.5l-.753 5.5-4.669-6.285Zm345.222-6.781c0-5.519 1.406-7.037 9.235-9.964 3.996-1.494 8.291-3.355 9.544-4.136 2.203-1.371 2.257-1.324 1.61 1.374-2.313 9.64-9.188 16.292-16.84 16.292-3.402 0-3.549-.148-3.549-3.566Zm105.004-11.468c.517-4.028 1.443-5.876 4.636-9.25 5.411-5.716 13.651-15.599 15.839-18.997 2.376-3.689 1.289-.007 1.016 1.291-.422 2.002-5.283 13.129-7.498 16.611-3.125 4.912-12.869 15.379-14.034 15.379-.333 0-.314-2.265.041-5.034Zm-403.797-3.52c-2.284-1.955-6.865-7.61-10.18-12.566-5.109-7.638-6.027-9.687-6.027-13.445 0-2.439.367-4.435.816-4.435.448 0 1.768 1.688 2.933 3.75 1.165 2.063 5.4 7.8 9.412 12.75 6.452 7.96 7.3 9.491 7.341 13.25.026 2.338 0 4.25-.048 4.25-.052 0-1.963-1.599-4.247-3.554Zm250.827-495.164c14.449.032 27.468 6.448 38.928 14.861l7.762-1.177c24.713-3.746 52.429 9.349 68.022 32.14 3.291 4.81 8.254 15.255 8.254 17.371 0 .727 2.548 1.656 6.25 2.279 13.557 2.28 25.497 9.366 31.359 18.612 1.59 2.508 3.578 4.576 4.419 4.596 3.311.079 15.653 6.906 18.329 10.138 4.168 5.033 11.416 15.9 13.273 19.898.893 1.925 2.12 6.086 2.725 9.246l1.1 5.745 5.463 1.588c12.473 3.626 27.983 13.879 32.274 21.334 1.404 2.44 4.335 5.196 7.682 7.225 9.149 5.545 38.343 29.712 32.626 27.008-1.1-.521-7.613-4.287-15-7.146-91.167-35.272-208.138-50.206-327-13.911-51.653 15.773-87.486 36.988-107.944 63.911-9.991 13.149-9.22 13.863 2.547 2.358 13.271-12.974 22.559-20.282 35.264-27.741 19.662-11.546 34.461-18.107 60.903-27.004 38.578-12.98 73.717-19.561 121.23-22.703 52.757-3.489 119.081 6.037 180.5 25.925 21.922 7.099 33.978 11.647 44.081 16.63 14.284 7.045 10.728 7.448-9.581 1.084l-14-4.386-.301 6.035c-.165 3.319-.151 6.184.033 6.368.183.184 5.269 1.045 11.301 1.913 12.459 1.795 26.532 5.507 32.75 8.639 10.168 5.121 16.717 13.349 16.717 21.002 0 4.314-4.287 11.322-9.608 15.708-8.99 7.411-28.249 15.303-50.392 20.651-6.325 1.527-11.984 3.282-12.576 3.899-.592.617-2.34 4.185-3.886 7.928-10.806 26.166-32.554 42.791-64.397 49.23-11.714 2.368-32.102 1.679-40.895-1.382l-6.253-2.177-3.751 2.482c-9.681 6.407-28.102 11.247-38.648 10.155-3.352-.347-9.019-1.527-12.594-2.621l-6.5-1.99-2.5 2.898c-13.906 16.119-16.422 2.614-34.663 25.936-4.469 5.715-6.901 14.521-7.803 18.014l-1.641 6.351 2.582 4.649c6.785 12.216 7.002 12.981 7.014 24.649.01 6.05-.39 15.595-.88 21.21l-.89 10.21s18.812-1.214 33.281-3.455c82.49-12.775 115.826-16.369 159.917-30.074 43.051-13.381 68.122-23.039 80.333-36.189 4.185-4.508 4.75-5.644 4.75-9.555 0-3.801-.492-4.871-3.419-7.44-10.109-8.877-29.917-14.896-69.416-13.87-37.657.978-59.692 2.106-118.165 12.663-45.243 8.169-81.72 17.006-84.87 16.973-5.675-.058 23.024-10.625 47.106-17.345 40.781-11.38 78.111-18.988 113.764-23.186 18.728-2.205 65.515-3.053 81.537-1.477 41.631 4.093 62.32 19.447 54.439 40.4-4.224 11.23-17.185 21.621-41.323 33.128-41.99 20.018-105.764 34.153-190.653 47.959-26.745 4.349-48.974 6.764-92.5 10.046-18.7 1.411-40.975 3.212-49.5 4.003-26.32 2.441-43.823 4.477-87.5 4.995-38.792.46-27.757.644-50-1.398v-.001c-39.071-3.084-49.755-27.457-12.675-35.959 5.129-1.176 9.794-2.138 10.366-2.138.572 0-2.51 1.777-6.85 3.95-4.34 2.172-9.638 5.459-11.773 7.305-3.285 2.839-3.779 3.768-3.211 6.032 1.967 7.839 26.584 10.906 70.143 8.74 23.392-1.163 61.214-4.408 62.137-5.331.253-.253.476-5.801.496-12.328.015-5.237-.637-12.364-1.633-19.592-1.964-14.25-5.261-28.892-7.406-30.218-.414-.256-2.845.165-5.402.934-6.243 1.879-24.389 5.077-39.692 6.994-16.849 2.111-47.704 2.093-59.019-.035-11.084-2.084-19.646-5.901-21.565-9.613-3.401-6.576 3.833-12.004 25.692-19.279 11.868-3.95 35.392-7.725 35.392-6.809 0 .189-12.897 5.407-19.544 7.307-18.465 5.279-24.159 11.47-25.413 13.145-7.2 9.617 78.36 8.782 104.738 1.875-2.805-.919-7.224-6.429-11.164-9.914-3.941-3.486-10.397-10.236-14.347-15-3.951-4.765-7.613-8.959-8.138-9.321-.525-.362-4.504-1.178-8.843-1.812-46.472-14.114-53.174 28.993-94.269-8.099-4.796-4.536-5.863-5.106-8.741-4.672-5.735.864-16.014-1.174-23.279-4.616-7.176-3.4-17.002-11.475-19.388-15.932-1.147-2.143-2.289-2.604-7.971-3.212-10.939-1.172-20.928-5.751-30.976-14.2l-3.335-2.804c10.139-3.548 17.102-6.052 26.186-11.887 2.255-1.348 3.984-2.792 3.984-2.983 0-.191-4.388.72-9.75 2.024-15.754 3.83-32.109 5.614-46.75 5.102-11.613-.407-13.866-.794-21.11-3.622-14.761-5.763-22.39-13.942-22.39-24.006 0-5.991 2.047-10.561 7.635-17.042 8.39-9.731 31.284-23.71 45.249-27.628 5.315-1.492 6.542-2.334 9.943-6.827 4.853-6.413 9.574-11.111 14.467-14.4 2.538-1.706 3.6-3.058 3.207-4.082-.323-.843-.585-6.732-.582-13.088 0-8.631.528-13.413 2.071-18.894 7.311-25.972 27.156-45.108 52.666-50.786l8.156-1.815 1.059-5.272c2.406-11.983 10.398-27.134 19.607-37.172 8.88-9.68 24.513-19.266 37.022-22.702 3.3-.907 10.167-1.808 15.261-2.003 7.867-.301 10.034-.432 12.917-2.839 22.103-18.45 36.924-6.934 39.865-12.503 1.115-2.111 3.734-5.75 7.1-9.55 0 0 8.025-8.263 12.295-10.98 8.676-5.524 15.432-8.168 25.913-10.143 14.067-2.651 23.547-1.335 40.698 5.649 2.831 1.152 3.454.973 8.686-2.501 2.973-1.974 15.212-8.527 30.084-9.193.85-.046 1.695-.069 2.535-.07h.18Zm-183.174 279.24c-4.864-6.708-12.714-16.656-15.669-19.522-1.797-1.743-3.519-2.972 9.815 17.377 3.669 5.601 13.473 14.004 15.091 16.74 3.456 4.548 14.6 29.883 13.452 29.883-.322 0-4.07-1.248-7.317-4.136-2.97-2.641-15.436-8.692-21.988-8.834-8.832-.192-13.553-2.399-37.744-12.928-3.85-1.676-6.152-2.497-5.116-1.825 11.221 7.281 17.303 10.936 18.557 11.528 25.767 12.153 11.563-2 63.048 29.86 26.399 16.857 24.344 6.131 45.663 28.835 6.639 7.15 14.271 15.051 16.959 17.557 2.689 2.507 6.126 6.029 7.639 7.827 3.72 4.423 3.47 2.499-.5-3.849-9.387-15.004-27.122-34.68-38-42.157-6.291-4.324-7.639-5.904-2.5-2.93 1.787 1.035 5.222 2.459 7.632 3.165 7.399 2.166 30.629 26.595 38.989 40.999 1.53 2.637 2.45 8.157 4.15 24.888 1.201 11.825 2.489 21.829 2.861 22.23.373.401.664-4.637.648-11.197-.016-6.56.252-11.613.597-11.23 1.358 5.405 4.631 14.015 5.404 19.602.497 3.973-.014 8.965-1.928 18.842-2.89 14.919-3.021 16.13-1.652 15.284.522-.324 2.553-.648 4.512-.722 1.959-.074 3.927-.623 4.374-1.221 1.385-1.856 5.993-18.717 7.198-26.338.63-3.987 1.4-7.25 1.711-7.25.668 0-.533 27.289-1.371 31.169-.569 2.629-.513 2.66 3.774 2.123 2.393-.299 4.661-.825 5.041-1.168.379-.343 1.447-8.034 2.373-17.091 2.066-20.211 1.544-38.37-1.504-52.407-1.18-5.43-1.95-10.068-1.712-10.307.705-.704 6.161 14.358 9.271 25.592l2.882 10.41.291-9.41c2.396-77.384-44.341-122.454-52.001-123.11-4.145-.355-6.794-1.571-12.55-5.127-12.059-7.448.513 4.107-11.14 3.34-18.476-1.215-23.191-7.739-35.508-18.014-.561 0 1.494 3.658 3.651 6.5 8.664 15.535 36.067 15.828 39.723 15.292 12.416-.94 28.295 46.528 17.034 7.477 17.202 11.783 35.694 55.433 41.563 82.731-5.595-9.355-24.884-23.766-30.285-25.432-2.005-.618-1.87-.168 1.395 4.624 5.102 7.489 11.801 22.142 13.627 29.808 2.767 11.613 2.931 15.185 1.176 25.489-2.259 13.264-3.332 15.737-3.413 7.872-.073-7.07-2.346-20.098-5.059-29.001-4.682-15.364-14.173-29.183-25.991-37.845-12.698-9.308-32.743-17.932-49.013-21.088-19.87-10.884-21.584-29.533-32.122-39.889-1.87-1.837-5.751-4.235-7.922-6.197 0 0-7.578-6.467-8.096-6.819Zm311.14-90.232c-11.166 9.417-58.985 37.694-53.569 26.21 2.255-3.779 11.734-32.898 11.511-35.362-.07-.778-3.723 7.142-9.16 19.862-5.089 11.907-7.027 14.675-10.863 15.518-1.68.369-24.259 44.052-28.756 51.482-3.902 6.445-13.933 20-14.802 20-.159 0 1.495-3.689 3.675-8.197 2.976-6.154 6.082-36.313-1.505-47.213-2.938-4.221-6.591-10.694-8.117-14.383-3.059-7.397-4.091-10.245-4.038-6.207.187 14.064 6.58 16.829 8.864 24.117 6.065 19.349 5.444 22.288-1.424 43.58-1.444 4.477-6.227 8.94-7.502 11.552-4.95 10.141-12.134 15.332-27.455 19.84l-7.52 2.212 1.286 3.599c2.198 6.148 1.64 14.015-1.751 24.727-2.464 7.786-3.148 11.775-3.233 18.873-.106 8.746 2.402 23.867 3.068 18.5.171-1.375 1.084-6.775 2.029-12 1.703-9.414 1.725-9.459 2.427-5 1.247 7.927.18 47.751-1.528 57.029-1.511 8.209-8.246 29.297-12.542 39.272l-2.068 4.801 5.532-.224c3.042-.123 6.114-.709 6.826-1.301 1.617-1.345 3.914-7.674 6.608-18.211 1.931-7.55 2.061-10.463 1.802-40.5-.376-43.821.726-48.091 15.882-61.56 13.64-12.123 21.814-19.743 22.215-20.71 1.152-2.785-22.583 12.482-30.655 19.717-15.556 13.942 8.621-14.626 22.904-23.865 14.625-9.459 69.231-21.244 114.859-32.427 111.219-27.261-23.251 13.362-89.509 35.981-15.02 4.178-26.621 33.719-27.668 37.742-.829 3.184-.503 4.265 1.781.593 12.802-22.265 28.478-23.84 51.896-32.095 55.284-23.27 87.677-34.384 176-60.384 23.99-7.062 36.742-12.217 41.563-16.804 5.887-5.599 5.071-9.445-2.849-13.428-6.646-3.342-13.879-5.241-27.714-7.278-22.746-3.349-105.933-2.237-109.698 1.465-.384.378 2.316.799 6 .936 97.915 3.764 65.474 15.214-41.802 29.271-24.659 3.74-37.276 7.67-2.5 4.754 42.073-4.291 66.26-1.046 3 14.676-14.85 3.631-40.127 9.634-56 13.985-15.991 4.383-20.473 5.518-22.348 4.063l33.28-60.594c16.21-15.844 38.825-26.444 37.725-25.404 18.972-12.945 30.643-25.259 25.843-21.21ZM543.4 643.852c.935-4.028 2.158-13.028 2.72-20 1.185-14.7 2.563-83.948 1.653-83.038-.338.337-1.584 3.932-2.771 7.988-2.314 7.91-2.747 22.685-1.829 62.375.397 17.17-.367 22.546-5.505 38.736-.5 1.576-.188 1.867 1.711 1.596 1.998-.285 2.56-1.357 4.021-7.657Zm-118.157-1.158c0-.494.42-1.159.934-1.476.514-.318 1.652-3.047 2.53-6.065 1.833-6.307 5.399-9.263 14.286-11.844 4.627-1.343 5.25-1.348 5.25-.039 0 2.164-3.486 8.649-5.644 10.497-2.92 2.503-17.353 9.926-17.356 8.927Zm-157.304-12.787c-3.526-7.894-6.564-20.013-7.704-30.73-1.532-14.399-1.087-14.757 2.481-2 1.845 6.6 4.744 15.59 6.441 19.977 3.011 7.785 4.119 16.767 2.213 17.944-.479.297-2.024-2.039-3.431-5.191Zm440.304-10.333c9.4-2.915 17.44-5.285 35.5-10.465 21.789-6.25 41.251-12.651 53.014-17.438 11.213-4.562 12.042-4.692 13.429-2.101.883 1.652.344 2.21-4.215 4.367-23.037 10.898-71.429 24.121-99.228 27.114l-5 .539 6.5-2.016Zm-238.234-55.971c-4.254-4.279-12.016-11.014-17.25-14.965-5.234-3.951-9.697-7.619-9.516-7.541 17.786 7.626 29.024 14.88 33.782 27.33.613 1.788 1.025 3.184.916 3.104-.109-.08-3.678-3.648-7.932-7.928Zm173.234-37.351c9.348-1.999 16.344-4.843 26.009-10.571 13.409-7.949 22.051-11.9 27.991-12.798l5.5-.832-5.299-1.187c-12.16-2.724-21.416-.484-35.445 8.578-10.617 6.858-16.967 10.202-28.256 14.882l-8 3.317h5.5c3.025.001 8.425-.624 12-1.389Zm185.5-1.233c-4.582-.237-7.119.161-7.119-.695 0-2.658-4.321-35.006-4.844-36.37-.406-1.057 1.668-.783 8.1-3.1 4.801-1.729 8.849-3.024 8.996-2.877.992.992 5.536 27.463 6.045 35.212l.623 9.633s-8.089-1.61-11.801-1.803Zm-323.595-63.342-.098-5.5-1.843 8.856c-1.013 4.87-2.034 9.046-2.267 9.28-.234.234-.957-2.278-1.607-5.581-.968-4.922-.542-7.255.326-13.281 1.982-13.745 10.916-33.009 17.189-38.459 23.073-47.579 2.617-17.046-.181-18.655.074 4.781-2.206 9.551-5.14 10.753-1.739.712-5.455-10.488-5.462-18.447-9.051-24.938-7.813-14.86-4.638-3.794 2.447 8.532-4.673 10.731 1.28 20.977 2.495 4.293 4.531 8.153 4.526 8.578-.01.425-2.212 3.612-4.906 7.083-3.784 4.874-5.359 8.058-6.924 14-3.13 11.875-4.473 22.393-3.948 30.915l.479 7.775-1.809-4c-2.617-5.786-3.717-12.23-4.726-27.688-.795-12.174-1.193-14.197-3.598-18.302-2.73-4.658-5.623-6.51-10.171-6.51-1.64 0-4.15-1.667-7.393-4.91-5.611-3.88 1.388 4.849 2.168 7.36 1.917 2.175 1.079.901-2.847.446-42.199-4.883-14.555 3.364 4.161 4.721 8.574.621-12.488 23.793 33.202 72.319 2.693 2.861 11.06 15.22 12.05 17.8.38.991 1.73-.832 1.96-1.522-5.269-15.336-9.764-35.632-9.783-54.214Zm-292.905 21.829c0-.645-1.121-3.974-2.491-7.398-3.63-9.073-4.954-19.534-3.68-29.068.575-4.302.918-7.949.763-8.105-.573-.572-10.272 4.156-16.235 7.915-12.347 7.781-17.709 16.553-13.802 22.582.979 1.51 2.704 3.559 3.834 4.555 2.72 2.396 15.651 8.495 20.369 9.607 5.584 1.317 11.242 1.272 11.242-.088Zm522.362-25.734c18.826-4.742 34.013-11.198 42.803-17.363 8.79-6.164 11.183-12.039 4.421-15.618-13.564-1.526 128.538 4.03-47.224 32.981Zm-414.384-49.191c-2.463-2.143-5.378-4.101-6.478-4.351-3.414-.777-14.5-1.214-14.5-.572 0 .827 11.938 6.898 15.576 7.921 1.608.453 4.489.84 6.402.86l3.478.038-4.478-3.896ZM433.77 274.143c-3.835-1.902-8.448-3.736-10.25-4.074-3.516-.659-4.041-1.513-1.983-3.221 2.293-1.903 20.527-2.369 26.974-.689 6.75 1.758 14.006 5.342 18.232 9.006l3 2.602-3.263-.627c-4.247-.817-12.224-.869-19.737-.129-5.453.537-6.636.276-12.973-2.868Zm115.031-3.663c9.177 6.731 14.423 15.755 16.442 26.662-7.374-7.695-15.27-16.901-27.097-14.895-5.055.39-12.884.156-19-.569-10.816-1.282-22.532-.341-27.259 2.189-2.479 1.327 26.449.772 37.063 25.436.131.303-2.607-.511-5.274-1.654-5.955-2.553-17.776-4.172-21.135-2.896-4.298 1.635-6.484 1.008-10.996-3.152-4.163-3.837-11.295-7.853-14.033-7.902-.677-.012-3.693 1.553-6.702 3.478-3.009 1.925-6.005 3.5-6.656 3.5-.652 0-5.052-1.881-9.779-4.179-7.255-3.527-9.805-4.249-16.367-4.629-6.897-.399-9.467-.06-19.148 2.524-2.553.682-.734 1.781 6.383 3.86 4.911 1.435 13.335 5.953 18.295 9.814 5 3.891-9.684 14.643-14.935 11.08-26.444-13.682-30.011 33.811-81.535 12.911-3.243.006-13.236-1.084-7.486 4.119.424.384 1.4 1.774 3.456 2.721 5.3 2.44 7.33 6.401 7.33 14.304 0 3.578-.262 7.33-.582 8.339-.961 3.027-5.112 4.136-15.483 4.136l-43.525-4.93c-6.944 1.291-10.222 2.72-16.035 6.991-7.446 5.469-11.506 10.547-5.215 6.522 1.218-.779 7.351-2.415 13.63-3.635 12.561-2.442 22.102-2.294 32.922.51 24.37 6.891 28.915 21.311 19.002 20.116-2.387-.288-9.739-.781-16.339-1.096-6.6-.315-13.125-.831-14.5-1.146-5.356-1.226-10.744-1.144-16.395.248-7.419 1.828-15.623 6.222-15.551 8.329.03.875 2.154 2.941 4.721 4.591 5.621 3.613 10.787 10.163 12.223 15.496 1.247 4.63-.337 12.536-2.693 13.44-.82.315-5.185-.396-9.699-1.58-9.515-2.496-14.01-2.07-18.559 1.758-1.7 1.43-3.542 4.352-4.231 6.71-.985 3.267-2.401 7.75-6.253 8.13l-2.827.124.586-7.604c.323-4.182 1.086-8.918 1.697-10.524-4.518-1.482-8.403 5.835-12.099 14.892-4.745 12.506.415 32.41-1.25 34.074-4.869 12.688-26.017-54.128 18.33-66.519 5.671-1.585 5.425-1.312 3.653-4.06-4.447-6.9-6.007-25.802-3.068-37.193 3.682-14.271 14.1-28.059 25.926-34.31 5.605-2.963 18.211-6.945 19.117-6.039.224.224 1.005 2.712 1.736 5.53 1.432 5.521 10.179 20.859 12.636 22.158 2.12 1.121 13.059 3.291 13.644 2.706.267-.267-1.343-4.782-3.578-10.033-5.498-12.919-7.066-19.505-7.066-29.685 0-10.013 1.707-16.63 6.813-26.399 7.25-13.87 20.048-24.593 34.866-29.214 7.297-2.275 9.605-2.557 17.127-2.093 4.782.294 10.309 1.231 12.284 2.082l3.59 1.546 1.588-3.33c2.66-5.577 7.668-10.057 12.528-12.17 16.224-7.053 25.486-2.441 30.033-.001 2.233 1.198 6.881 2.924 10 4.571 3.119 1.648 7.686 3.697 10.148 4.553 2.463.856 7.812 3.354 11.886 5.552 4.074 2.197 7.563 3.839 7.753 3.649.191-.191-1.994-3.917-4.855-8.282-7.736-11.186-17.058-21.576-29.672-27.147-.907-.609 6.438-6.918 6.438-6.918 10.683-7.505 21.554-12.687 43.004-11.025 5.207.404 40.145 12.971 46.23 17.34 3.034 2.178 6.525 2.362 6.847 2.04.977-.976-.738-11.421-5.813-15.88-5.305-4.662-7.213-4.075-6.533-4.631 2.465-2.012 12.247-4.214 18.669-4.202 11.928.022 23.538 4.481 31.658 12.161l5.179 4.898 7.346-2.035c8.711-2.414 15.088-2.548 23.782-.498 15.06 3.549 30.008 14.17 36.113 28.538 10.784 25.381 13.318 8.106 33.908 26.014 8.813 7.665 9.179 17.348 4.858 11.683-1.377-1.805-4.658-4.359-7.292-5.674-8.511-4.178-38.081-7.456-31.461 6.635 1.402 3.368 3.233 7.546 3.49 9.552l.467 3.647-3.822-4.217a461.336 461.336 0 0 1-6.74-7.614c-11.994-13.594-10.452-18.781-32.784-17.272-3.168-3.517-6.598-5.674-10.499-5.377-9.142 1.06-13.077 2.661-12.134 2.659 11.622-.023 24.549 16.435 25.246 26.042.009.119-6.605-5.076-16.121-6.544-6.711-.95-12.046-3.16-14.357-8.143-3.249-11.625-12.969-24.415-25.069-25.367-25.938-3.674-23.413-10.362-47.199-13.243-3.322-.402-8.418-.706-11.372-.343l-5.372.66c14.633 7.454 37.148 13.349 52.802 24.629" />
  <path fill="var(--illustration-leaves-color)"
    d="M299.301 468.837c-1.565-19.847-.304-9.904-17.772 2.588-16.884 12.075 16.935 16.931 17.803-.68.03-.609.021-1.245-.031-1.908ZM718.031 380.038s-.42 17.221 19.321 12.181c19.742-5.041 5.725-8.843-19.321-12.181ZM420.719 343.684s-17.683 19.865-4.779 18.431c12.903-1.434 10.991-6.276 4.779-18.431M181.783 279c21.391-37.417 43.743 13.15 67.489 18.729 23.746 5.579-88.88 18.687-67.489-18.729Z" />
  <path
    fill="var(--illustration-color)"
    d="M174.593 280.019c-1.965 4.978-1.944 9.272-.733 12.899 2.148 6.437 8.672 11.377 17.959 14.167 18.732 5.629 49.103 3.394 59.307.194 2.547-.799 4.261-1.835 5.171-2.671 1.502-1.378 2.097-2.91 2.27-4.278.23-1.81-.159-3.713-1.823-5.48-.855-.907-2.695-2.203-6.091-3.001-5.11-1.201-10.04-4.996-15.007-9.249-5.848-5.008-11.621-10.752-17.313-15.142-6.965-5.372-14.006-8.661-20.797-8.123-6.302.5-12.928 4.101-19.165 13.666-2.737-1.668-5.614-3.956-8.336-6.311-6.943-6.009-12.789-12.653-12.789-12.653a4.001 4.001 0 0 0-5.645-.361 4.001 4.001 0 0 0-.361 5.645s8.463 9.613 17.367 16.554c1.994 1.555 4.018 2.971 5.986 4.144Zm60.976 17.792c-13.418 1.381-32.446 1.236-43.824-3.557-2.914-1.227-5.315-2.61-6.287-4.801-.887-1.997-.182-4.394 1.569-7.455 3.941-6.895 7.429-10.3 11.463-10.62 4.162-.33 8.197 2.353 12.465 5.646 6.724 5.186 13.552 12.305 20.499 17.77a71.282 71.282 0 0 0 4.115 3.017Z" />
  <path fill="var(--illustration-leaves-color)"
    d="M792.149 575.953c6.748-33.461-35.38 8.091-54.644 9.549-24.669 1.867 48.866 19.108 54.644-9.549Z" />
  <path
    fill="var(--illustration-color)"
    d="M737.279 582.511c-2.819.076-14.066 1.208-15.344 1.847-1.481.741-2.993 2.501-2.383 4.04a3.002 3.002 0 0 0 3.895 1.683s3.112-1.261 6.062-.187c.475.173 6.118 2.561 9.991 3.426 8.107 1.811 21.03 2.945 32.236 1.008 11.618-2.008 21.266-7.426 23.354-17.782.923-4.579.964-7.93.424-10.272-.495-2.147-1.471-3.635-2.717-4.646-1.275-1.035-2.88-1.603-4.805-1.664-2.123-.068-4.749.529-7.704 1.68-7.604 2.962-17.867 9.704-27.377 14.83-5.833 3.145-11.318 5.92-15.632 6.037Zm4.814 5.171c4.101-1.134 8.8-3.304 13.665-5.926 9.286-5.006 19.284-11.629 26.709-14.521 1.765-.688 3.353-1.159 4.716-1.259.738-.055 1.379-.058 1.833.311.498.403.668 1.132.783 2.114.204 1.727.004 4.011-.591 6.959-1.173 5.819-5.796 9.251-11.633 11.313-9.9 3.498-23.266 3.068-32.684 1.565a40.577 40.577 0 0 1-2.798-.556Z" />
  <defs>
    <linearGradient id="a" x1="0" x2="1" y1="0" y2="0" gradientTransform="scale(-341.7028) rotate(85.629 .524 -2.303)"
      gradientUnits="userSpaceOnUse">
      <stop offset="0" stop-color="var(--illustration-background-gradient-start)" />
      <stop offset="1" stop-color="var(--illustration-background-gradient-end)" stop-opacity=".21" />
    </linearGradient>
  </defs>
</svg>